<svg width="61" height="48" viewBox="0 0 61 48" fill="none" xmlns="http://www.w3.org/2000/svg">
<g clip-path="url(#clip0_149_39)">
<path fill-rule="evenodd" clip-rule="evenodd" d="M12.5122 0.00585938C9.07497 0.00585938 6.53156 3.01438 6.64545 6.27704C6.75475 9.41157 6.61274 13.4712 5.59076 16.7819C4.56514 20.1019 2.8318 22.2057 0 22.4757V25.5245C2.8318 25.7951 4.56514 27.8979 5.59064 31.2183C6.61274 34.529 6.75464 38.5887 6.64533 41.7232C6.53144 44.9854 9.07485 47.9944 12.5127 47.9944H47.7333C51.1706 47.9944 53.7135 44.9859 53.5996 41.7232C53.4903 38.5887 53.6323 34.529 54.6543 31.2183C55.6799 27.8979 57.409 25.7943 60.241 25.5245V22.4757C57.4092 22.2051 55.6801 20.1023 54.6543 16.7819C53.6322 13.4717 53.4903 9.41157 53.5996 6.27704C53.7135 3.01485 51.1706 0.00585938 47.7333 0.00585938H12.5118H12.5122ZM40.8414 29.5459C40.8414 34.0385 37.4903 36.7631 31.9292 36.7631H22.4627C22.1919 36.7631 21.9322 36.6555 21.7407 36.464C21.5492 36.2725 21.4417 36.0128 21.4417 35.742V12.2583C21.4417 11.9875 21.5492 11.7278 21.7407 11.5363C21.9322 11.3448 22.1919 11.2373 22.4627 11.2373H31.8754C36.5124 11.2373 39.5556 13.749 39.5556 17.6054C39.5556 20.3121 37.5084 22.7353 34.9002 23.1598V23.301C38.4507 23.6904 40.8414 26.1495 40.8414 29.5459ZM30.897 14.4739H25.4993V22.0982H30.0455C33.56 22.0982 35.4978 20.683 35.4978 18.1535C35.4975 15.7829 33.8314 14.4739 30.897 14.4739ZM25.4993 25.1233V33.5254H31.0956C34.7548 33.5254 36.693 32.0571 36.693 29.2978C36.693 26.5385 34.7004 25.1228 30.8603 25.1228H25.4993V25.1233Z" fill="#DADADA"/>
</g>
<defs>
<clipPath id="clip0_149_39">
<rect width="60.241" height="48" fill="white"/>
</clipPath>
</defs>
</svg>
