<svg width="26" height="38" viewBox="0 0 26 38" fill="none" xmlns="http://www.w3.org/2000/svg">
<path d="M12.769 1.00675H18.2248C21.1666 1.00675 23.5514 3.39154 23.5514 6.33333C23.5514 9.27512 21.1666 11.6599 18.2248 11.6599H12.769V1.00675Z" stroke="#D1ED5D" stroke-width="2.01349"/>
<path d="M1.00675 6.33333C1.00675 3.39154 3.39154 1.00675 6.33333 1.00675H11.7892V11.6599H6.33333C3.39154 11.6599 1.00675 9.27513 1.00675 6.33333Z" stroke="#D1ED5D" stroke-width="2.01349"/>
<path d="M1.00675 18.9998C1.00675 16.058 3.39154 13.6733 6.33333 13.6733H11.7892V24.3264H6.33333C3.39154 24.3264 1.00675 21.9416 1.00675 18.9998Z" stroke="#D1ED5D" stroke-width="2.01349"/>
<path d="M1.00675 31.6668C1.00675 28.725 3.39154 26.3402 6.33333 26.3402H11.7892V31.6022C11.7892 34.5731 9.34961 36.9934 6.36548 36.9934C3.41705 36.9934 1.00675 34.602 1.00675 31.6668Z" stroke="#D1ED5D" stroke-width="2.01349"/>
<path d="M13.8026 18.9998C13.8026 16.058 16.1874 13.6733 19.1292 13.6733H19.2585C22.2003 13.6733 24.5851 16.058 24.5851 18.9998C24.5851 21.9416 22.2003 24.3264 19.2585 24.3264H19.1292C16.1874 24.3264 13.8026 21.9416 13.8026 18.9998Z" stroke="#D1ED5D" stroke-width="2.01349"/>
</svg>
