<svg width="36" height="48" viewBox="0 0 36 48" fill="none" xmlns="http://www.w3.org/2000/svg">
<path d="M12.8441 12.1854L2.09001 32.5907L6.98619 1.27867L6.98623 1.27839C6.99201 1.24141 7.00088 1.21857 7.00694 1.20616C7.01165 1.19651 7.01581 1.19076 7.01847 1.18761C7.02542 1.19457 7.03914 1.21032 7.05535 1.24059C7.05549 1.24086 7.05563 1.24113 7.05578 1.2414L12.8441 12.1854Z" stroke="#DADADA" stroke-width="2"/>
<path d="M17.4645 8.03644L17.4648 8.03586C17.4714 8.0229 17.4774 8.01325 17.4824 8.00619C17.5054 8.01712 17.5472 8.04653 17.5879 8.12455C17.588 8.12458 17.588 8.12461 17.588 8.12464L21.7793 16.1574L18.7083 19.3228L15.1031 12.6153L17.4645 8.03644ZM17.4969 7.98936C17.4969 7.9894 17.4964 7.98984 17.4954 7.99058C17.4964 7.98969 17.4969 7.98932 17.4969 7.98936Z" stroke="#DADADA" stroke-width="2"/>
<path d="M17.7443 20.594L1.64895 36.6297L14.0033 13.0704L17.8517 20.3019L17.7443 20.594Z" stroke="#DADADA"/>
<path d="M33.677 38.0514L18.5126 46.5087C18.1738 46.6976 17.7924 46.7967 17.4046 46.7966C17.0169 46.7965 16.6357 46.6973 16.2972 46.5083C16.297 46.5083 16.2969 46.5082 16.2968 46.5081L1.81889 38.4159L29.2811 10.9805C29.2821 10.9854 29.2831 10.9906 29.284 10.9961L29.284 10.9963L33.677 38.0514Z" stroke="#DADADA" stroke-width="2"/>
<path d="M19.021 47.2624C18.5296 47.5365 17.9763 47.6803 17.4136 47.6802C16.8509 47.6801 16.2977 47.536 15.8064 47.2618L0.127154 38.5633L0 38.6977L15.8064 47.523C16.2977 47.7973 16.851 47.9414 17.4137 47.9415C17.9764 47.9416 18.5298 47.7978 19.0212 47.5237L34.9189 38.6575L34.8799 38.418L19.0212 47.2626L19.021 47.2624Z" fill="#EEAB37"/>
</svg>
