<svg width="48" height="48" viewBox="0 0 48 48" fill="none" xmlns="http://www.w3.org/2000/svg">
<path d="M21.4232 4.35019L3.53603 11.7517C2.54132 12.1633 2.55163 13.5762 3.55258 13.973L21.5146 21.096C23.0929 21.7219 24.8505 21.7219 26.4285 21.096L44.3908 13.973C45.3915 13.5762 45.4021 12.1633 44.4071 11.7517L26.5202 4.35019C24.8882 3.67494 23.0549 3.67494 21.4232 4.35019Z" fill="#DADADA"/>
<path d="M25.5654 24.9861V42.7803C25.5654 43.6266 26.4189 44.2062 27.2056 43.8943L47.2207 36.1253C47.6777 35.9442 47.9774 35.5027 47.9774 35.0113V17.2171C47.9774 16.3708 47.1239 15.7912 46.3372 16.1031L26.322 23.8721C25.8654 24.0532 25.5654 24.4947 25.5654 24.9861Z" fill="#DADADA"/>
<path d="M20.8917 25.904L14.9516 28.772L14.3485 29.0636L1.80936 35.0717C1.01451 35.4552 0 34.8759 0 33.9929V17.2916C0 16.9722 0.163797 16.6964 0.383458 16.4886C0.475119 16.3967 0.578983 16.3211 0.686915 16.2611C0.986576 16.0813 1.41397 16.0333 1.77736 16.1771L20.7919 23.7109C21.7584 24.0943 21.8343 25.4486 20.8917 25.904Z" fill="#DADADA"/>
<path d="M20.8915 25.904L14.9514 28.772L0.383301 16.4886C0.474962 16.3967 0.578826 16.3211 0.686758 16.2611C0.986419 16.0813 1.41381 16.0333 1.7772 16.1771L20.7917 23.7109C21.7582 24.0943 21.8341 25.4486 20.8915 25.904Z" fill="#DADADA"/>
</svg>
