<svg width="92" height="48" viewBox="0 0 92 48" fill="none" xmlns="http://www.w3.org/2000/svg">
<g clip-path="url(#clip0_149_64)">
<path d="M90.673 23.8601C90.673 29.8871 85.9603 35.5896 77.7861 39.8446C69.6609 44.0742 58.3666 46.7201 45.8365 46.7201C33.3064 46.7201 22.0122 44.0742 13.8869 39.8446C5.71278 35.5896 1 29.8871 1 23.8601C1 17.833 5.71278 12.1305 13.8869 7.87547C22.0122 3.64591 33.3064 1 45.8365 1C58.3666 1 69.6609 3.64591 77.7861 7.87547C85.9603 12.1305 90.673 17.833 90.673 23.8601Z" stroke="#DADADA" stroke-width="2"/>
<path fill-rule="evenodd" clip-rule="evenodd" d="M12.8716 37.9874L17.895 12.5574H29.5106C34.5336 12.8715 37.0453 15.3828 37.0453 19.7785C37.0453 27.3132 31.0805 31.7085 25.743 31.3944H20.0926L18.8368 37.9874H12.8716ZM21.3481 26.6855L22.918 17.2668H26.9993C29.1969 17.2668 30.7664 18.2086 30.7664 20.0922C30.4528 25.4296 27.9411 26.3714 25.1157 26.6855H21.3481ZM35.8783 31.3944L40.9013 5.96484H46.8665L45.6107 12.5574H51.2615C56.2849 12.8715 58.1684 15.3828 57.5407 18.5226L55.3431 31.3944H49.0642L51.2618 19.7785C51.5755 18.2086 51.5755 17.2668 49.3782 17.2668H44.6689L41.8435 31.3944H35.8783ZM54.9409 37.9874L59.9639 12.5574H71.5799C76.6033 12.8715 79.115 15.3828 79.115 19.7785C79.115 27.3132 73.1498 31.7085 67.8127 31.3944H62.1616L60.9057 37.9874H54.9409ZM63.4171 26.6855L64.987 17.2668H69.0686C71.2662 17.2668 72.8358 18.2086 72.8358 20.0922C72.5221 25.4296 70.0104 26.3714 67.185 26.6855H63.4171Z" fill="#DADADA"/>
</g>
<defs>
<clipPath id="clip0_149_64">
<rect width="91.673" height="48" fill="white"/>
</clipPath>
</defs>
</svg>
