<svg width="111" height="24" viewBox="0 0 111 24" fill="none" xmlns="http://www.w3.org/2000/svg">
<g clip-path="url(#clip0_149_80)">
<path d="M0.0551758 15.0585C0.0551758 13.8084 0.26447 12.6419 0.683059 11.5591C1.10165 10.4765 1.68758 9.53318 2.44109 8.72952C3.19459 7.92585 4.09598 7.29516 5.14526 6.83765C6.19455 6.37993 7.34415 6.15096 8.5943 6.15096C9.54325 6.15096 10.4055 6.29063 11.1813 6.56955C11.9571 6.84868 12.7077 7.3064 13.4331 7.9425V6.48587H17.6861V23.6314H13.4331V22.1745C12.7077 22.8108 11.9571 23.2685 11.1813 23.5475C10.4055 23.8266 9.54325 23.9661 8.5943 23.9661C7.34415 23.9661 6.19433 23.7373 5.14526 23.2796C4.09598 22.8221 3.19459 22.1914 2.44109 21.3877C1.68758 20.5838 1.10165 19.6407 0.683059 18.5579C0.26447 17.4753 0.0551758 16.3089 0.0551758 15.0585ZM9.14694 19.9644C9.48185 19.9644 9.83341 19.9283 10.2018 19.8556C10.5701 19.783 10.9413 19.6602 11.3153 19.4872C11.6892 19.3142 12.0548 19.0827 12.412 18.7923C12.7692 18.5021 13.1095 18.1449 13.4331 17.7207V12.3963C13.1095 11.9723 12.7692 11.6179 12.412 11.3332C12.0546 11.0486 11.6892 10.8168 11.3151 10.6382C10.9411 10.4597 10.5701 10.334 10.2016 10.2616C9.83341 10.189 9.48163 10.1528 9.14694 10.1526C8.48835 10.1526 7.8715 10.2754 7.2968 10.5211C6.72167 10.7667 6.22222 11.11 5.79823 11.5509C5.37402 11.9917 5.04191 12.5109 4.80192 13.108C4.56192 13.7052 4.44192 14.3554 4.44192 15.0585C4.44192 15.7618 4.56192 16.412 4.80192 17.0092C5.04191 17.6064 5.37402 18.1255 5.79823 18.5663C6.22244 19.0074 6.72189 19.3505 7.29658 19.5962C7.87171 19.8416 8.48835 19.9644 9.14694 19.9644ZM28.3173 10.3835C26.3021 10.3982 24.5515 11.8026 24.5515 13.8866V23.6314H20.2986V14.0038C20.3223 9.98917 23.7991 6.20501 28.2563 6.15096H28.3752C32.8324 6.20501 36.3091 9.98917 36.3329 14.0038V23.6314H32.08V13.8866C32.08 11.8026 30.3295 10.3982 28.3142 10.3835M38.3461 15.0585C38.3461 13.8084 38.5554 12.6419 38.974 11.5591C39.3926 10.4765 39.9787 9.53318 40.732 8.72952C41.4855 7.92585 42.3869 7.29516 43.4362 6.83765C44.4855 6.37993 45.6351 6.15096 46.8854 6.15096C47.8342 6.15096 48.6992 6.29063 49.4806 6.56955C50.262 6.84868 51.0099 7.30078 51.7243 7.92585V1.34562H55.9772V23.6314H51.7243V22.1914C51.0099 22.8275 50.262 23.2824 49.4806 23.5559C48.6992 23.8294 47.8342 23.9661 46.8854 23.9661C45.6351 23.9661 44.4855 23.7373 43.4362 23.2796C42.3869 22.8221 41.4855 22.1914 40.732 21.3877C39.9787 20.584 39.3926 19.6407 38.9742 18.5579C38.5554 17.4753 38.3461 16.3089 38.3461 15.0585ZM47.4378 19.9644C47.7728 19.9644 48.1243 19.9283 48.4927 19.8556C48.861 19.783 49.2322 19.6602 49.6062 19.4872C49.9801 19.3142 50.3457 19.0827 50.7029 18.7923C51.0601 18.5021 51.4004 18.1449 51.7243 17.7207V12.3963C51.4004 11.9723 51.0601 11.6179 50.7029 11.3332C50.3457 11.0486 49.9801 10.8168 49.6062 10.6382C49.2322 10.4597 48.861 10.334 48.4927 10.2616C48.1243 10.189 47.7728 10.1528 47.4378 10.1526C46.7793 10.1526 46.1626 10.2754 45.5877 10.5211C45.0128 10.7667 44.5131 11.11 44.0894 11.5509C43.6649 11.9917 43.3328 12.5109 43.0928 13.108C42.8528 13.7052 42.7328 14.3554 42.733 15.0585C42.733 15.7618 42.8528 16.412 43.0928 17.0092C43.3328 17.6064 43.6649 18.1255 44.0891 18.5663C44.5133 19.0074 45.0128 19.3505 45.5877 19.5962C46.1626 19.8416 46.7793 19.9644 47.4378 19.9644ZM75.893 19.9644C76.5293 19.9644 77.1293 19.8444 77.693 19.6044C78.2479 19.3704 78.7493 19.0258 79.1665 18.5914C79.5851 18.1562 79.9143 17.6399 80.1543 17.0427C80.3943 16.4455 80.5143 15.7843 80.5143 15.0585C80.5143 14.3441 80.3915 13.6884 80.1459 13.0912C79.9003 12.494 79.5654 11.9777 79.1414 11.5424C78.721 11.1098 78.2206 10.7629 77.6679 10.5211C77.1098 10.2754 76.5181 10.1528 75.893 10.1526C75.2569 10.1526 74.6569 10.2754 74.093 10.5211C73.5389 10.7601 73.038 11.1073 72.6198 11.5424C72.2012 11.9777 71.8691 12.494 71.6234 13.0912C71.3778 13.6884 71.255 14.3441 71.255 15.0587C71.255 15.7841 71.375 16.4455 71.615 17.0427C71.855 17.6399 72.1843 18.1562 72.6031 18.5914C73.0202 19.0258 73.5215 19.3704 74.0764 19.6044C74.64 19.8444 75.2457 19.9644 75.893 19.9644ZM75.893 23.9661C74.6541 23.9661 73.4876 23.7429 72.3936 23.2964C71.2995 22.85 70.3426 22.2277 69.5223 21.4294C68.7017 20.6314 68.0542 19.6881 67.5798 18.5999C67.1055 17.5114 66.8685 16.3311 66.8685 15.0585C66.8685 13.8196 67.1055 12.6585 67.5798 11.576C68.0544 10.4932 68.6989 9.55004 69.5138 8.74638C70.3285 7.9425 71.2857 7.30921 72.3852 6.84587C73.4848 6.38274 74.6541 6.15096 75.893 6.15096C77.1319 6.15096 78.2986 6.38274 79.3924 6.84587C80.4865 7.30921 81.4408 7.9425 82.2555 8.74638C83.0706 9.55004 83.7149 10.4934 84.1895 11.576C84.6639 12.6588 84.9009 13.8196 84.9009 15.0585C84.9009 16.3311 84.6639 17.5114 84.1895 18.5999C83.7151 19.6881 83.0676 20.6314 82.2473 21.4294C81.4268 22.2277 80.4724 22.85 79.384 23.2964C78.2958 23.7429 77.1321 23.9661 75.893 23.9661ZM88.933 5.1434C88.5884 5.1434 88.2628 5.07616 87.9557 4.94146C87.6546 4.81067 87.3807 4.62437 87.1484 4.39228C86.9163 4.15994 86.73 3.88598 86.5992 3.58472C86.4643 3.27666 86.3955 2.94374 86.3973 2.60744C86.3973 2.26301 86.4645 1.93459 86.5992 1.62237C86.7286 1.31797 86.915 1.04114 87.1484 0.806819C87.3808 0.574733 87.6547 0.388433 87.956 0.257638C88.264 0.122788 88.5969 0.0539957 88.9332 0.0556948C89.2777 0.0556948 89.6061 0.122937 89.9183 0.257638C90.2227 0.386997 90.4995 0.57341 90.7339 0.806819C90.9673 1.04115 91.1537 1.31798 91.283 1.62237C91.4177 1.93459 91.485 2.26301 91.485 2.60766C91.485 2.95209 91.4177 3.27792 91.283 3.58494C91.1522 3.88612 90.9659 4.16 90.7339 4.39228C90.4996 4.62572 90.2227 4.81214 89.9183 4.94146C89.6073 5.07585 89.2718 5.1446 88.933 5.1434ZM86.8064 6.48587H91.0593V23.6314H86.8064V6.48587ZM93.0147 15.0585C93.0147 13.8084 93.224 12.6419 93.6426 11.5591C94.0612 10.4765 94.6471 9.53318 95.4006 8.72952C96.1541 7.92585 97.0555 7.29516 98.1048 6.83765C99.1538 6.37993 100.304 6.15096 101.554 6.15096C102.503 6.15096 103.368 6.29063 104.149 6.56955C104.93 6.84868 105.678 7.30078 106.393 7.92585V1.34562H110.646V23.6314H106.393V22.1914C105.678 22.8275 104.93 23.2824 104.149 23.5559C103.368 23.8294 102.503 23.9661 101.554 23.9661C100.304 23.9661 99.1538 23.7373 98.1048 23.2796C97.0555 22.8221 96.1541 22.1914 95.4006 21.3877C94.6471 20.584 94.0612 19.6407 93.6426 18.5579C93.224 17.4753 93.0147 16.3089 93.0147 15.0585ZM102.106 19.9644C102.441 19.9644 102.793 19.9283 103.161 19.8556C103.53 19.783 103.901 19.6602 104.275 19.4872C104.649 19.3142 105.014 19.0827 105.371 18.7923C105.728 18.5021 106.069 18.1449 106.393 17.7207V12.3963C106.069 11.9723 105.728 11.6179 105.371 11.3332C105.014 11.0486 104.649 10.8168 104.275 10.6382C103.901 10.4597 103.53 10.334 103.161 10.2616C102.793 10.189 102.441 10.1528 102.106 10.1526C101.448 10.1526 100.831 10.2754 100.256 10.5211C99.6812 10.7667 99.1817 11.11 98.7577 11.5509C98.3335 11.9917 98.0014 12.5109 97.7614 13.108C97.5214 13.7052 97.4014 14.3554 97.4014 15.0585C97.4014 15.7618 97.5214 16.412 97.7614 17.0092C98.0014 17.6064 98.3335 18.1255 98.7577 18.5663C99.182 19.0074 99.6814 19.3505 100.256 19.5962C100.831 19.8416 101.448 19.9644 102.106 19.9644ZM66.4631 10.3321C63.613 10.3321 62.3561 11.8026 62.3561 13.8866V23.6314H58.1032V14.0038C58.127 9.98917 60.4461 6.04242 66.4631 6.04242" fill="#DADADA"/>
</g>
<defs>
<clipPath id="clip0_149_80">
<rect width="110.701" height="24" fill="white"/>
</clipPath>
</defs>
</svg>
