<svg width="48" height="48" viewBox="0 0 48 48" fill="none" xmlns="http://www.w3.org/2000/svg">
<path d="M30.6624 13.8327V9.0694C31.2918 8.77521 31.8248 8.30828 32.1992 7.72298C32.5736 7.13767 32.7741 6.45806 32.7773 5.76325V5.65396C32.7773 3.62813 31.135 1.98586 29.1094 1.98586H28.9999C26.9741 1.98586 25.3318 3.62813 25.3318 5.65396V5.76325C25.335 6.45806 25.5355 7.13767 25.9099 7.72298C26.2843 8.30828 26.8173 8.77521 27.4468 9.0694V13.8327C25.6376 14.1097 23.9338 14.8599 22.5079 16.0072L9.44434 5.83202C9.53748 5.49575 9.58607 5.14996 9.59156 4.80288C9.59316 3.98539 9.35227 3.1858 8.89937 2.50523C8.44647 1.82467 7.80191 1.29371 7.04721 0.979526C6.29251 0.665339 5.46158 0.582035 4.65953 0.740152C3.85748 0.898269 3.12034 1.2907 2.54136 1.86782C1.96237 2.44493 1.56755 3.18079 1.40683 3.98232C1.24611 4.78386 1.32672 5.61505 1.63846 6.37076C1.9502 7.12648 2.47906 7.77276 3.15815 8.22787C3.83724 8.68297 4.63605 8.92645 5.45354 8.9275C6.16869 8.92413 6.87045 8.7332 7.48873 8.37379L20.3526 18.3838C17.9876 21.9565 18.0508 26.6127 20.5119 30.12L16.5994 34.0336C16.283 33.9326 15.9537 33.8788 15.6216 33.8743C13.7478 33.8759 12.2299 35.3955 12.2304 37.2693C12.2308 39.1429 13.7498 40.6616 15.6234 40.6621C17.4971 40.6626 19.0167 39.1446 19.0183 37.2709C19.0139 36.9389 18.9601 36.6094 18.8588 36.2932L22.7293 32.4212C26.1877 35.0836 30.9376 35.313 34.6365 32.9963C38.3353 30.6794 40.202 26.3055 39.3157 22.032C38.4294 17.7584 34.9775 14.4876 30.6624 13.8325M29.058 29.4987C28.343 29.5179 27.6313 29.3937 26.965 29.1333C26.2988 28.873 25.6915 28.4818 25.1789 27.9828C24.6663 27.4838 24.2589 26.8873 23.9808 26.2282C23.7026 25.5692 23.5593 24.8612 23.5593 24.1458C23.5593 23.4305 23.7026 22.7225 23.9808 22.0634C24.2589 21.4044 24.6663 20.8078 25.1789 20.3089C25.6915 19.8099 26.2988 19.4187 26.965 19.1584C27.6313 18.898 28.343 18.7738 29.058 18.793C31.9396 18.8939 34.2239 21.2584 34.2255 24.142C34.2268 27.0252 31.9449 29.3921 29.0634 29.4959" fill="#DADADA"/>
</svg>
