<svg width="36" height="48" viewBox="0 0 36 48" fill="none" xmlns="http://www.w3.org/2000/svg">
<path d="M11.4011 37.1215C11.4011 37.1215 9.56685 38.1881 12.7065 38.5491C16.5101 38.9829 18.454 38.9208 22.6457 38.1274C22.6457 38.1274 23.7478 38.8184 25.2867 39.417C15.8903 43.4441 4.02055 39.1836 11.4011 37.1215ZM10.2528 31.8662C10.2528 31.8662 8.19556 33.3891 11.3376 33.714C15.4007 34.1332 18.6094 34.1675 24.1618 33.0984C24.1618 33.0984 24.9298 33.8769 26.1374 34.3028C14.7764 37.6249 2.12241 34.5647 10.2528 31.8662Z" fill="#DADADA"/>
<path d="M19.9327 22.9511C22.2481 25.6167 19.3244 28.0154 19.3244 28.0154C19.3244 28.0154 25.2033 24.9806 22.5034 21.1801C19.9818 17.6362 18.0479 15.8751 28.5166 9.80371C28.5166 9.80371 12.0843 13.9077 19.9327 22.9509" fill="#DADADA"/>
<path d="M32.3604 41.0081C32.3604 41.0081 33.7178 42.1264 30.8654 42.9917C25.4417 44.6348 8.29112 45.131 3.52671 43.0571C1.8141 42.3122 5.02585 41.2782 6.03608 41.0612C7.08966 40.8327 7.69185 40.8753 7.69185 40.8753C5.78717 39.5335 -4.61915 43.5099 2.406 44.6486C21.5644 47.7555 37.3298 43.2496 32.3604 41.0081ZM12.2832 26.4208C12.2832 26.4208 3.55951 28.4929 9.19405 29.2452C11.5731 29.5637 16.3156 29.4917 20.7333 29.1215C24.3437 28.8171 27.9689 28.1695 27.9689 28.1695C27.9689 28.1695 26.6958 28.7147 25.7748 29.3436C16.9159 31.6735 -0.198014 30.5897 4.72886 28.2063C8.89553 26.1923 12.2834 26.4208 12.2834 26.4208M27.9329 35.1682C36.9386 30.4886 32.7747 25.9916 29.8684 26.5975C29.156 26.7457 28.8385 26.8741 28.8385 26.8741C28.8385 26.8741 29.1029 26.4599 29.608 26.2807C35.3574 24.2592 39.7793 32.2424 27.7519 35.4041C27.7519 35.4042 27.8913 35.2797 27.9329 35.1682Z" fill="#DADADA"/>
<path d="M22.5033 0.000138975C22.5033 0.000138975 27.4908 4.98941 17.773 12.6611C9.98041 18.8153 15.996 22.3242 17.7698 26.3332C13.2211 22.2292 9.88285 18.6164 12.1225 15.254C15.4094 10.3179 24.5156 7.92489 22.5033 0" fill="#DADADA"/>
<path d="M13.1684 47.8494C21.8127 48.4028 35.0868 47.5424 35.4011 43.4521C35.4011 43.4521 34.7969 45.0029 28.2572 46.2342C20.8792 47.6226 11.7795 47.4605 6.38232 46.5707C6.38246 46.5707 7.48719 47.4851 13.1686 47.8494" fill="#DADADA"/>
</svg>
