<svg width="32" height="32" viewBox="0 0 32 32" fill="none" xmlns="http://www.w3.org/2000/svg">
<path d="M16.0002 20.6663C18.5775 20.6663 20.6668 18.577 20.6668 15.9997C20.6668 13.4223 18.5775 11.333 16.0002 11.333C13.4228 11.333 11.3335 13.4223 11.3335 15.9997C11.3335 18.577 13.4228 20.6663 16.0002 20.6663Z" stroke="#DADADA" stroke-width="1.7" stroke-miterlimit="10" stroke-linecap="round" stroke-linejoin="round"/>
<path d="M28 16.7059C28 24.6667 25.3333 28 16 28C6.66667 28 4 25.3333 4 16C4 7.33333 6.66667 4 16 4C26 4 28 7.33333 28 16.7059Z" stroke="#DADADA" stroke-width="1.7" stroke-linecap="round" stroke-linejoin="round"/>
<path d="M22.0002 10.0003C22.3684 10.0003 22.6668 9.70185 22.6668 9.33366C22.6668 8.96547 22.3684 8.66699 22.0002 8.66699C21.632 8.66699 21.3335 8.96547 21.3335 9.33366C21.3335 9.70185 21.632 10.0003 22.0002 10.0003Z" fill="#DADADA" stroke="#DADADA" stroke-width="1.7" stroke-linecap="round" stroke-linejoin="round"/>
</svg>
