<svg width="48" height="48" viewBox="0 0 48 48" fill="none" xmlns="http://www.w3.org/2000/svg">
<g clip-path="url(#clip0_149_35)">
<path d="M1 1H47V47H1V1Z" stroke="#DADADA" stroke-width="2"/>
<path d="M44.0717 36.5524C43.7204 34.3623 42.2923 32.5235 38.0626 30.8079C36.5934 30.1326 34.9554 29.649 34.4672 28.5357C34.2938 27.8878 34.271 27.5228 34.3805 27.1304C34.6953 25.8574 36.2147 25.4604 37.4193 25.8254C38.1949 26.0855 38.9295 26.6833 39.3721 27.6368C41.4436 26.2954 41.439 26.3045 42.8854 25.3829C42.3561 24.5616 42.0732 24.1828 41.7265 23.8315C40.4808 22.4399 38.7835 21.7236 36.0687 21.7783C35.5987 21.8376 35.1242 21.9015 34.6542 21.9608C33.2991 22.303 32.0078 23.0148 31.2504 23.9684C28.9782 26.5464 29.6261 31.0589 32.3911 32.916C35.1151 34.9601 39.1166 35.4255 39.6276 37.3372C40.125 39.6779 37.9075 40.4353 35.7037 40.1661C34.0793 39.8285 33.176 39.0026 32.1995 37.5015C30.4018 38.5418 30.4018 38.5418 28.5539 39.6049C28.9919 40.5631 29.4527 40.9966 30.1874 41.827C33.6642 45.354 42.3653 45.1806 43.9258 39.8422C43.9896 39.6596 44.4094 38.4368 44.0717 36.5524ZM26.0945 22.0612H21.6048C21.6048 25.9395 21.5866 29.7904 21.5866 33.6688C21.5866 36.1372 21.7144 38.4003 21.3128 39.0939C20.6558 40.4581 18.9539 40.2893 18.1782 40.0246C17.3889 39.6368 16.9874 39.0847 16.522 38.3045C16.3942 38.0809 16.2984 37.9075 16.2664 37.8939C15.0482 38.6376 13.8345 39.3858 12.6162 40.1296C13.2231 41.3752 14.1174 42.4566 15.2626 43.1592C16.9736 44.1858 19.2732 44.5007 21.6779 43.9486C23.2429 43.4923 24.5934 42.5478 25.3006 41.1106C26.3227 39.2262 26.1037 36.9448 26.0945 34.4216C26.1174 30.306 26.0945 26.1904 26.0945 22.0612Z" fill="#DADADA"/>
</g>
<defs>
<clipPath id="clip0_149_35">
<rect width="48" height="48" fill="white"/>
</clipPath>
</defs>
</svg>
