<svg width="39" height="56" viewBox="0 0 39 56" fill="none" xmlns="http://www.w3.org/2000/svg">
<path d="M19.3335 27.9997C19.3335 25.7011 20.2466 23.4967 21.8719 21.8714C23.4972 20.2461 25.7016 19.333 28.0002 19.333C30.2987 19.333 32.5031 20.2461 34.1284 21.8714C35.7537 23.4967 36.6668 25.7011 36.6668 27.9997C36.6668 30.2982 35.7537 32.5026 34.1284 34.1279C32.5031 35.7532 30.2987 36.6663 28.0002 36.6663C25.7016 36.6663 23.4972 35.7532 21.8719 34.1279C20.2466 32.5026 19.3335 30.2982 19.3335 27.9997V27.9997Z" stroke="#DADADA" stroke-width="3.5"/>
<path d="M2 45.3337C2 43.0351 2.91309 40.8307 4.53841 39.2054C6.16372 37.5801 8.36812 36.667 10.6667 36.667H19.3333V45.3337C19.3333 47.6322 18.4202 49.8366 16.7949 51.4619C15.1696 53.0872 12.9652 54.0003 10.6667 54.0003C8.36812 54.0003 6.16372 53.0872 4.53841 51.4619C2.91309 49.8366 2 47.6322 2 45.3337Z" stroke="#DADADA" stroke-width="3.5"/>
<path d="M19.3335 2V19.3333H28.0002C30.2987 19.3333 32.5031 18.4202 34.1284 16.7949C35.7537 15.1696 36.6668 12.9652 36.6668 10.6667C36.6668 8.36812 35.7537 6.16372 34.1284 4.53841C32.5031 2.91309 30.2987 2 28.0002 2L19.3335 2Z" stroke="#DADADA" stroke-width="3.5"/>
<path d="M2 10.6667C2 12.9652 2.91309 15.1696 4.53841 16.7949C6.16372 18.4202 8.36812 19.3333 10.6667 19.3333H19.3333V2H10.6667C8.36812 2 6.16372 2.91309 4.53841 4.53841C2.91309 6.16372 2 8.36812 2 10.6667Z" stroke="#DADADA" stroke-width="3.5"/>
<path d="M2 27.9997C2 30.2982 2.91309 32.5026 4.53841 34.1279C6.16372 35.7532 8.36812 36.6663 10.6667 36.6663H19.3333V19.333H10.6667C8.36812 19.333 6.16372 20.2461 4.53841 21.8714C2.91309 23.4967 2 25.7011 2 27.9997Z" stroke="#DADADA" stroke-width="3.5"/>
</svg>
