<svg width="39" height="38" viewBox="0 0 39 38" fill="none" xmlns="http://www.w3.org/2000/svg">
<rect x="0.75" y="0.75" width="37.5" height="36.5" rx="6.88" stroke="#D1ED5D" stroke-width="1.5"/>
<path d="M11.5 27.2571V10.5705C12.3976 10.5237 13.6642 10.5 14.9948 10.5C16.8633 10.5 18.0841 11.0733 18.8462 11.9425C19.6185 12.8233 19.9856 14.0829 19.9856 15.5753C19.9856 17.5067 19.3693 18.82 18.4357 19.6563C17.4926 20.5011 16.1621 20.9159 14.636 20.9159C14.3515 20.9159 14.1696 20.9084 13.9991 20.9012L13.9988 20.9012L13.9969 20.9011C13.8532 20.8951 13.7122 20.8892 13.5304 20.8892H13.0304V21.3892V27.2571H11.5ZM13.0304 27.571C13.0304 27.5781 13.0299 27.5769 13.0304 27.5695V27.571ZM11.5 27.571V27.5695C11.5006 27.5769 11.5 27.5781 11.5 27.571ZM13.0304 18.8141V19.2756L13.4905 19.3125C13.8398 19.3405 14.1173 19.3405 14.6656 19.3405H14.683C15.5709 19.3405 16.5145 19.1663 17.2425 18.5793C17.9912 17.9756 18.4217 17.0102 18.4217 15.6282C18.4217 14.5168 18.1154 13.602 17.4748 12.9667C16.8351 12.3322 15.9347 12.0485 14.8948 12.0485C14.3203 12.0485 13.7608 12.0751 13.479 12.1043L13.0304 12.1506V12.6016V18.814V18.8141ZM24.9972 21.8882L24.9884 21.883L24.9794 21.8781C23.9989 21.3504 23.3564 20.8434 22.9552 20.2845C22.563 19.7382 22.3727 19.1023 22.3727 18.2564C22.3727 17.3366 22.6904 16.517 23.2605 15.9299C23.8272 15.3464 24.675 14.9598 25.8008 14.9598C26.8535 14.9598 27.5869 15.1247 27.9992 15.2962V16.8651C27.3468 16.5693 26.5638 16.4026 25.8008 16.4026C25.1415 16.4026 24.629 16.5906 24.2786 16.9268C23.9309 17.2603 23.7954 17.69 23.7954 18.0708C23.7954 18.2546 23.8158 18.45 23.8887 18.6533C23.962 18.8573 24.0789 19.0438 24.2407 19.2242C24.5503 19.5696 25.052 19.9212 25.8082 20.3613L25.8081 20.3615L25.8199 20.368C26.9037 20.9603 27.5631 21.5118 27.9563 22.0815C28.3409 22.6388 28.5 23.256 28.5 24.0441C28.5 25.213 28.1089 26.0602 27.4981 26.6189C26.881 27.1835 25.9881 27.5 24.9071 27.5C23.8032 27.5 22.8975 27.2566 22.3702 26.9572V25.3544C23.1939 25.802 24.0827 26.0043 24.9071 26.0043C25.5427 26.0043 26.0757 25.8554 26.4561 25.5284C26.8474 25.1922 27.0066 24.729 27.0066 24.2565C27.0066 23.8429 26.8802 23.4558 26.5423 23.0616C26.226 22.6925 25.7275 22.3205 24.9972 21.8882Z" fill="#D1ED5D" stroke="#D1ED5D"/>
</svg>
