<svg width="54" height="48" viewBox="0 0 54 48" fill="none" xmlns="http://www.w3.org/2000/svg">
<path d="M53.8997 24.0055C53.8997 20.4349 49.4282 17.051 42.5727 14.9526C44.1547 7.96521 43.4516 2.40604 40.3534 0.62623C39.6393 0.208743 38.8043 0.0109863 37.8924 0.0109863V2.46098C38.3978 2.46098 38.8043 2.55985 39.1449 2.74662C40.639 3.60357 41.2873 6.86656 40.7819 11.0634C40.661 12.0961 40.4633 13.1838 40.2216 14.2934C38.0682 13.7661 35.7171 13.3596 33.2451 13.0959C31.762 11.0634 30.2239 9.21767 28.6748 7.60265C32.2564 4.27375 35.6182 2.44999 37.9034 2.44999V0C34.8821 0 30.927 2.15335 26.9279 5.88876C22.9288 2.17533 18.9737 0.0439461 15.9524 0.0439461V2.49393C18.2266 2.49393 21.5995 4.30671 25.181 7.61364C23.6429 9.22866 22.1048 11.0634 20.6436 13.0959C18.1607 13.3596 15.8096 13.7661 13.6562 14.3044C13.4035 13.2058 13.2168 12.1401 13.0849 11.1183C12.5686 6.92149 13.2058 3.6585 14.6889 2.79057C15.0185 2.59281 15.447 2.50492 15.9524 2.50492V0.0549325C15.0295 0.0549325 14.1946 0.252689 13.4694 0.670176C10.3822 2.44999 9.69009 7.99817 11.2831 14.9636C4.44953 17.073 0 20.4459 0 24.0055C0 27.5761 4.4715 30.9599 11.3271 33.0584C9.74502 40.0458 10.4482 45.6049 13.5463 47.3848C14.2605 47.8022 15.0954 48 16.0183 48C19.0396 48 22.9947 45.8466 26.9938 42.1112C30.9929 45.8247 34.948 47.9561 37.9693 47.9561C38.8922 47.9561 39.7272 47.7583 40.4523 47.3408C43.5395 45.561 44.2316 40.0128 42.6386 33.0474C49.4502 30.949 53.8997 27.5651 53.8997 24.0055ZM39.5953 16.6775C39.1888 18.0948 38.6834 19.556 38.1121 21.0172C37.6617 20.1382 37.1893 19.2593 36.6729 18.3804C36.1675 17.5015 35.6292 16.6445 35.0909 15.8096C36.651 16.0403 38.1561 16.3259 39.5953 16.6775ZM34.5635 28.3781C33.7066 29.8613 32.8276 31.2676 31.9158 32.575C30.2788 32.7178 28.6198 32.7947 26.9499 32.7947C25.2909 32.7947 23.632 32.7178 22.006 32.5859C21.0941 31.2786 20.2042 29.8833 19.3472 28.4111C18.5122 26.9718 17.7542 25.5106 17.062 24.0385C17.7432 22.5663 18.5122 21.0941 19.3362 19.6548C20.1932 18.1717 21.0721 16.7654 21.984 15.458C23.621 15.3152 25.2799 15.2383 26.9499 15.2383C28.6088 15.2383 30.2678 15.3152 31.8938 15.447C32.8057 16.7544 33.6956 18.1497 34.5525 19.6219C35.3875 21.0611 36.1456 22.5223 36.8377 23.9945C36.1456 25.4667 35.3875 26.9389 34.5635 28.3781ZM38.1121 26.9499C38.7054 28.4221 39.2108 29.8943 39.6283 31.3225C38.1891 31.6741 36.6729 31.9707 35.1019 32.2014C35.6402 31.3555 36.1785 30.4875 36.6839 29.5976C37.1893 28.7187 37.6617 27.8288 38.1121 26.9499ZM26.9718 38.6725C25.9501 37.6178 24.9284 36.4422 23.9176 35.1568C24.9064 35.2007 25.9171 35.2337 26.9389 35.2337C27.9716 35.2337 28.9934 35.2117 29.9931 35.1568C29.0043 36.4422 27.9826 37.6178 26.9718 38.6725ZM18.7979 32.2014C17.2378 31.9707 15.7327 31.6851 14.2934 31.3335C14.6999 29.9162 15.2053 28.455 15.7766 26.9938C16.2271 27.8727 16.6995 28.7517 17.2158 29.6306C17.7322 30.5095 18.2596 31.3664 18.7979 32.2014ZM26.9169 9.33852C27.9387 10.3932 28.9604 11.5688 29.9712 12.8542C28.9824 12.8103 27.9716 12.7773 26.9499 12.7773C25.9171 12.7773 24.8954 12.7993 23.8956 12.8542C24.8844 11.5688 25.9062 10.3932 26.9169 9.33852ZM18.7869 15.8096C18.2486 16.6555 17.7102 17.5235 17.2049 18.4134C16.6995 19.2923 16.2271 20.1712 15.7766 21.0501C15.1833 19.5779 14.678 18.1057 14.2605 16.6775C15.6997 16.3369 17.2158 16.0403 18.7869 15.8096ZM8.84413 29.5647C4.95491 27.9057 2.439 25.7304 2.439 24.0055C2.439 22.2806 4.95491 20.0943 8.84413 18.4463C9.78897 18.0398 10.8217 17.6773 11.8874 17.3367C12.5136 19.49 13.3376 21.7313 14.3593 24.0275C13.3486 26.3127 12.5356 28.5429 11.9203 30.6853C10.8327 30.3447 9.79996 29.9712 8.84413 29.5647ZM14.7549 45.2644C13.2607 44.4074 12.6125 41.1444 13.1179 36.9476C13.2387 35.9149 13.4365 34.8272 13.6782 33.7176C15.8315 34.2449 18.1827 34.6514 20.6546 34.9151C22.1378 36.9476 23.6759 38.7933 25.225 40.4083C21.6434 43.7372 18.2815 45.561 15.9963 45.561C15.5019 45.55 15.0845 45.4511 14.7549 45.2644ZM40.8148 36.8927C41.3312 41.0895 40.694 44.3525 39.2108 45.2204C38.8812 45.4182 38.4527 45.5061 37.9474 45.5061C35.6731 45.5061 32.3003 43.6933 28.7187 40.3864C30.2568 38.7713 31.7949 36.9366 33.2561 34.9041C35.7391 34.6404 38.0902 34.2339 40.2435 33.6956C40.4962 34.8052 40.694 35.8709 40.8148 36.8927ZM45.0446 29.5647C44.0998 29.9712 43.0671 30.3337 42.0014 30.6743C41.3751 28.5209 40.5512 26.2797 39.5294 23.9835C40.5402 21.6983 41.3532 19.4681 41.9684 17.3257C43.0561 17.6663 44.0888 18.0398 45.0556 18.4463C48.9448 20.1053 51.4607 22.2806 51.4607 24.0055C51.4498 25.7304 48.9339 27.9167 45.0446 29.5647Z" fill="#DADADA"/>
<path d="M26.9388 29.026C29.7117 29.026 31.9596 26.7781 31.9596 24.0052C31.9596 21.2323 29.7117 18.9844 26.9388 18.9844C24.1659 18.9844 21.918 21.2323 21.918 24.0052C21.918 26.7781 24.1659 29.026 26.9388 29.026Z" fill="#DADADA"/>
</svg>
