<svg width="49" height="48" viewBox="0 0 49 48" fill="none" xmlns="http://www.w3.org/2000/svg">
<path d="M3.4115 23.9994C3.4115 32.1489 8.1475 39.1916 15.0151 42.529L5.194 15.6204C4.0516 18.1809 3.4115 21.0146 3.4115 23.9994ZM37.899 22.9605C37.899 20.416 36.9852 18.6538 36.2013 17.2822C35.1576 15.5863 34.1794 14.1501 34.1794 12.4542C34.1794 10.5615 35.6148 8.7998 37.637 8.7998C37.728 8.7998 37.815 8.8111 37.903 8.8162C34.2405 5.4604 29.3603 3.4115 24.0002 3.4115C16.8074 3.4115 10.4793 7.1019 6.7979 12.6916C7.2809 12.7061 7.7361 12.7162 8.1228 12.7162C10.2763 12.7162 13.6099 12.4549 13.6099 12.4549C14.7197 12.3895 14.8506 14.0196 13.7419 14.1509C13.7419 14.1509 12.6265 14.2821 11.3854 14.3472L18.883 36.6483L23.3887 23.1352L20.1809 14.3464C19.0722 14.2813 18.0219 14.1501 18.0219 14.1501C16.9124 14.0851 17.0425 12.3887 18.152 12.4542C18.152 12.4542 21.5521 12.7155 23.5751 12.7155C25.7283 12.7155 29.0622 12.4542 29.0622 12.4542C30.1728 12.3887 30.3033 14.0189 29.1942 14.1501C29.1942 14.1501 28.0765 14.2813 26.8377 14.3464L34.2781 36.4786L36.3317 29.6161C37.222 26.7684 37.899 24.723 37.899 22.9605ZM24.3614 25.8003L18.1841 43.7505C20.0285 44.2927 21.9791 44.5893 24.0002 44.5893C26.3978 44.5893 28.697 44.1748 30.8372 43.4222C30.782 43.3341 30.7319 43.2405 30.6907 43.1386L24.3614 25.8003ZM42.066 14.1215C42.155 14.7773 42.205 15.4813 42.205 16.2386C42.205 18.3279 41.814 20.6765 40.639 23.6131L34.3502 41.796C40.471 38.2267 44.588 31.5953 44.588 23.9998C44.589 20.4203 43.674 17.0542 42.066 14.1215ZM24.0002 0C10.7668 0 0 10.766 0 23.9994C0 37.2343 10.7668 48 24.0002 48C37.233 48 48.002 37.2343 48.002 23.9994C48.001 10.766 37.233 0 24.0002 0ZM24.0002 46.8999C11.3737 46.8999 1.1005 36.6267 1.1005 23.9994C1.1005 11.3729 11.3733 1.10046 24.0002 1.10046C36.6263 1.10046 46.899 11.3729 46.899 23.9994C46.899 36.6267 36.6263 46.8999 24.0002 46.8999Z" fill="#DADADA"/>
</svg>
