<svg width="52" height="52" viewBox="0 0 52 52" fill="none" xmlns="http://www.w3.org/2000/svg">
<g clip-path="url(#clip0_145_16)">
<path d="M51 26C51 39.8071 39.8071 51 26 51C12.1929 51 1 39.8071 1 26C1 12.1929 12.1929 1 26 1C39.8071 1 51 12.1929 51 26Z" stroke="#DADADA" stroke-width="2"/>
<path d="M34.5905 23.2146L34.6607 22.9934C35.4757 20.9355 36.8167 19.1915 39.0397 18.6365L34.1589 30.494L34.1427 30.5333L34.1299 30.5738C33.714 31.8921 32.8891 33.0437 31.7748 33.8617C30.894 34.5083 29.8685 34.9199 28.7946 35.0649L28.67 34.1776C28.5177 33.0921 28.3146 31.6422 28.1115 30.1842C27.9084 28.726 27.7055 27.2606 27.5533 26.144C27.4772 25.5854 27.4141 25.1156 27.37 24.778C27.3479 24.6089 27.331 24.4755 27.3197 24.3816C27.3106 24.3061 27.3081 24.2782 27.3077 24.2783C27.3074 24.2783 27.3086 24.2981 27.3086 24.3259L25.3752 23.9669L22.9386 30.3022C22.9384 30.3027 22.9383 30.3031 22.9381 30.3035C22.0113 32.6959 20.3971 34.7328 17.6112 35.0734L14.922 18.6518C15.703 18.8689 16.4268 19.2715 17.0282 19.8331C17.9324 20.6776 18.4971 21.823 18.6164 23.0542L18.6165 23.056L18.6199 23.1132L18.6328 23.3311L18.6788 24.113C18.7169 24.7624 18.7676 25.6338 18.8183 26.5219C18.9215 28.3269 19.0198 30.1242 19.0198 30.3546L20.9526 30.7151L23.8289 23.2726L23.8315 23.2659L23.834 23.2591C24.7198 20.8647 26.2122 18.8755 28.7868 18.5116C28.8241 18.7951 28.8685 19.1341 28.9185 19.5155C29.0708 20.6787 29.2738 22.2355 29.4768 23.8099C29.6799 25.3846 29.8827 26.9755 30.0347 28.2074C30.1108 28.8238 30.1738 29.3478 30.2177 29.7342C30.2611 30.117 30.2776 30.2994 30.2806 30.3328C30.2809 30.3367 30.2811 30.3386 30.2811 30.3384L32.2343 30.6408L34.5905 23.2146Z" fill="#DADADA" stroke="#DADADA" stroke-width="2"/>
</g>
<defs>
<clipPath id="clip0_145_16">
<rect width="52" height="52" fill="white"/>
</clipPath>
</defs>
</svg>
