<svg width="39" height="38" viewBox="0 0 39 38" fill="none" xmlns="http://www.w3.org/2000/svg">
<path d="M27.3661 27.7018C27.8418 27.4919 28.2161 27.2444 28.4847 26.9574V27.7057V27.7821H28.561H31.3812H31.4575V27.7057V10V9.88077L31.3492 9.93067L28.5291 11.2304L28.4847 11.2509V11.2997V15.8931C27.7413 15.1645 26.7255 14.8038 25.4466 14.8038C23.8069 14.8038 22.4693 15.4012 21.4405 16.596L21.4401 16.5964C20.428 17.7911 19.9261 19.4044 19.9261 21.4278C19.9261 23.5155 20.4193 25.1538 21.4155 26.3327L21.4159 26.3331C22.4134 27.4968 23.7847 28.0763 25.5202 28.0763C26.1998 28.0763 26.8155 27.952 27.3661 27.7018ZM27.3661 27.7018C27.366 27.7019 27.3658 27.7019 27.3657 27.702L27.3349 27.6322M27.3661 27.7018C27.3662 27.7018 27.3663 27.7017 27.3665 27.7016L27.3349 27.6322M27.3349 27.6322C26.7954 27.8774 26.1905 28 25.5202 28C23.8035 28 22.4548 27.4278 21.4738 26.2834L28.4847 26.8433C28.2226 27.1466 27.8393 27.4096 27.3349 27.6322ZM20.3406 27.7821H20.4725L20.4068 27.6677L15.3033 18.7794L20.0389 10.5777L20.105 10.4632H19.9728H16.6131H16.5674L16.5458 10.5035L13.67 15.8716L10.7702 10.5032L10.7485 10.4632H10.703H7.34332H7.21149L7.27712 10.5775L12.0128 18.8283L6.93381 27.6677L6.8681 27.7821H7H10.3597H10.4054L10.427 27.7418L13.6463 21.7356L16.9139 27.7422L16.9356 27.7821H16.9809H20.3406ZM28.4847 24.0532C27.9618 24.8312 27.1107 25.2261 25.9125 25.2261C24.9526 25.2261 24.2161 24.8836 23.6928 24.2019C23.1825 23.516 22.9235 22.5938 22.9235 21.4278C22.9235 20.1947 23.1832 19.2575 23.6921 18.6056C24.1987 17.9564 24.9188 17.6295 25.8635 17.6295C27.0444 17.6295 27.9132 18.0238 28.4847 18.8041V24.0532Z" fill="#D1ED5D" stroke="#D1ED5D" stroke-width="0.152672"/>
<rect x="0.75" y="0.75" width="37.5" height="36.5" rx="6.88" stroke="#D1ED5D" stroke-width="1.5"/>
</svg>
